# Blender v2.74 (sub 0) OBJ File: ''
# www.blender.org
mtllib untitled.mtl
o Box001_Untitled
v -0.005537 -0.048098 0.012153
v 0.005222 -0.048925 0.011586
v -0.002482 -0.006066 -0.043032
v 0.008324 -0.006066 -0.043032
v -0.004724 -0.044307 0.022051
v 0.006035 -0.045134 0.021484
v -0.002482 0.004564 -0.043032
v 0.008324 0.004564 -0.043032
v -0.003112 -0.005097 -0.004513
v 0.007647 -0.005924 -0.005081
v 0.008461 -0.002134 0.004817
v -0.002298 -0.001307 0.005385
v -0.004324 -0.026598 0.003820
v 0.007248 -0.023634 0.013150
v 0.006434 -0.027424 0.003252
v -0.003511 -0.022807 0.013718
v 0.008324 -0.006066 -0.019942
v -0.002482 0.004564 -0.019942
v -0.002482 -0.006066 -0.019942
v 0.008324 0.004564 -0.019942
vt 1.000000 0.250000
vt 0.000000 0.250000
vt 0.000000 0.000000
vt 1.000000 0.000000
vt 1.000000 1.000000
vt 0.000000 1.000000
vt 0.250000 0.000000
vt 0.250000 1.000000
vt 1.000000 0.750000
vt 0.000000 0.750000
vt 0.000000 0.500000
vt 1.000000 0.500000
vt 0.750000 0.000000
vt 0.750000 1.000000
vt 0.500000 1.000000
vt 0.500000 0.000000
vn -0.076500 -0.356600 -0.931100
vn 0.076500 0.356600 0.931100
vn -0.052500 -0.931100 0.360900
vn 0.995700 -0.076500 -0.052500
vn -0.000000 0.000000 -1.000000
vn -0.999800 0.000000 -0.020000
vn -0.999900 0.013900 -0.010100
vn -1.000000 0.000000 -0.000000
vn -0.014800 -0.999800 0.014900
vn 0.000000 -1.000000 0.004700
vn -0.074200 -0.845100 -0.529500
vn -0.092800 -0.823900 -0.559000
vn 0.011100 0.992900 0.118300
vn 0.000000 0.993500 0.113400
vn 0.079700 0.740100 0.667700
vn 0.092100 0.741600 0.664500
vn 0.999900 -0.016100 -0.000200
vn 1.000000 0.000000 -0.002500
vn 0.995600 -0.086800 -0.033900
vn 0.971700 -0.235900 0.010500
vn -0.995700 0.076500 0.052500
vn -0.994900 0.088800 0.047800
vn -0.995600 0.088100 0.030700
vn -0.000000 -1.000000 -0.000000
vn 0.000000 1.000000 0.000000
vn 1.000000 0.000000 0.000000
usemtl None
s 1
f 13/1/1 15/2/1 2/3/1
f 2/3/1 1/4/1 13/1/1
f 6/4/2 14/1/2 16/2/2
f 16/2/2 5/3/2 6/4/2
f 1/3/3 2/4/3 6/5/3
f 6/5/3 5/6/3 1/3/3
f 15/7/4 14/8/4 6/6/4
f 6/6/4 2/3/4 15/7/4
f 4/3/5 3/4/5 7/5/5
f 7/5/5 8/6/5 4/3/5
f 19/7/6 18/8/7 7/6/8
f 7/6/8 3/3/8 19/7/6
f 19/9/9 17/10/10 10/11/11
f 10/11/11 9/12/12 19/9/9
f 20/9/13 18/10/14 12/11/15
f 12/11/15 11/12/16 20/9/13
f 17/13/17 20/14/18 11/15/19
f 11/15/19 10/16/20 17/13/17
f 13/13/21 16/14/21 12/15/22
f 12/15/22 9/16/23 13/13/21
f 9/12/12 10/11/11 15/2/1
f 15/2/1 13/1/1 9/12/12
f 11/12/16 12/11/15 16/2/2
f 16/2/2 14/1/2 11/12/16
f 10/16/20 11/15/19 14/8/4
f 14/8/4 15/7/4 10/16/20
f 1/4/21 5/5/21 16/14/21
f 16/14/21 13/13/21 1/4/21
f 9/16/23 12/15/22 18/8/7
f 18/8/7 19/7/6 9/16/23
f 3/5/24 4/6/24 17/10/10
f 17/10/10 19/9/9 3/5/24
f 8/5/25 7/6/25 18/10/14
f 18/10/14 20/9/13 8/5/25
f 4/4/26 8/5/26 20/14/18
f 20/14/18 17/13/17 4/4/26
o Box003_Untitled.001
v 0.067021 0.000000 0.055628
v 0.093607 0.000000 0.055628
v 0.067021 -0.000000 0.045424
v 0.093607 -0.000000 0.045424
v 0.067021 0.012632 0.055628
v 0.080032 0.012632 0.108559
v 0.067021 0.012632 0.045424
v 0.125618 0.012632 -0.013266
vt 1.000000 1.000000
vt 0.000000 1.000000
vt 1.000000 0.000000
vt 0.000000 0.000000
vn 0.000000 -1.000000 0.000000
vn -0.000000 1.000000 -0.000000
vn -0.408600 -0.860000 0.305700
vn -0.408700 -0.860000 0.305700
vn 0.805000 -0.524100 0.278000
vn 0.805000 -0.524100 0.277900
vn -0.364300 -0.766700 -0.528700
vn -0.364200 -0.766700 -0.528700
vn -1.000000 0.000000 0.000000
usemtl None
s 1
f 23/17/27 24/18/27 21/19/27
f 22/20/27 21/19/27 24/18/27
f 26/19/28 28/17/28 25/20/28
f 28/17/28 27/18/28 25/20/28
f 21/20/29 22/19/29 26/17/30
f 21/20/29 26/17/30 25/18/29
f 26/18/31 24/19/32 28/17/32
f 24/19/32 26/18/31 22/20/32
f 23/20/33 28/19/34 24/17/33
f 25/17/35 27/18/35 23/20/35
f 25/17/35 23/20/35 21/19/35
o Box002_Untitled.002
v -0.037923 0.000000 0.066327
v -0.002162 0.000000 0.066327
v -0.037923 -0.000000 0.041926
v -0.002162 -0.000000 0.041926
v -0.037923 0.009909 0.066327
v -0.002162 0.009909 0.066327
v -0.037923 0.009909 0.041926
v -0.002162 0.009909 0.041926
vt 0.000000 0.000000
vt 1.000000 0.000000
vt 0.000000 1.000000
vt 1.000000 1.000000
vn 0.000000 -1.000000 0.000000
vn 0.000000 1.000000 -0.000000
vn 0.000000 0.000000 1.000000
vn 1.000000 0.000000 0.000000
vn 0.000000 0.000000 -1.000000
vn -1.000000 0.000000 0.000000
usemtl None
s 1
f 30/21/36 29/22/36 32/23/36
f 29/22/36 31/24/36 32/23/36
f 36/24/37 35/23/37 33/21/37
f 36/24/37 33/21/37 34/22/37
f 34/24/38 33/23/38 29/21/38
f 34/24/38 29/21/38 30/22/38
f 36/24/39 34/23/39 30/21/39
f 36/24/39 30/21/39 32/22/39
f 35/24/40 36/23/40 32/21/40
f 35/24/40 32/21/40 31/22/40
f 33/24/41 35/23/41 31/21/41
f 33/24/41 31/21/41 29/22/41
o Cone
v 4.745175 2.610783 -0.533769
v 4.940266 2.610783 -0.514554
v 5.127859 2.610783 -0.457648
v 5.300745 2.610783 -0.365238
v 5.452282 2.610783 -0.240876
v 5.576645 2.610783 -0.089339
v 5.669055 2.610783 0.083548
v 5.725961 2.610783 0.271141
v 5.745175 2.610783 0.466231
v 4.745175 4.610783 0.466231
v 5.725961 2.610783 0.661321
v 5.669055 2.610783 0.848914
v 5.576645 2.610783 1.021801
v 5.452282 2.610783 1.173338
v 5.300745 2.610783 1.297701
v 5.127859 2.610783 1.390111
v 4.940266 2.610783 1.447016
v 4.745175 2.610783 1.466231
v 4.550085 2.610783 1.447016
v 4.362492 2.610783 1.390110
v 4.189605 2.610783 1.297700
v 4.038068 2.610783 1.173337
v 3.913705 2.610783 1.021801
v 3.821295 2.610783 0.848914
v 3.764390 2.610783 0.661321
v 3.745175 2.610783 0.466230
v 3.764390 2.610783 0.271140
v 3.821296 2.610783 0.083547
v 3.913706 2.610783 -0.089340
v 4.038070 2.610783 -0.240877
v 4.189606 2.610783 -0.365239
v 4.362494 2.610783 -0.457649
v 4.550086 2.610783 -0.514554
vn -0.259900 0.445500 -0.856700
vn 0.087800 0.445500 -0.891000
vn -0.422000 0.445500 -0.789600
vn -0.568000 0.445500 -0.692100
vn -0.692100 0.445500 -0.568000
vn -0.789600 0.445500 -0.422000
vn -0.856700 0.445500 -0.259900
vn -0.891000 0.445500 -0.087800
vn -0.891000 0.445500 0.087800
vn -0.856700 0.445500 0.259900
vn -0.789600 0.445500 0.422000
vn -0.692100 0.445500 0.568000
vn -0.568000 0.445500 0.692100
vn -0.422000 0.445500 0.789600
vn -0.259900 0.445500 0.856700
vn -0.087800 0.445500 0.891000
vn 0.087800 0.445500 0.891000
vn 0.259900 0.445500 0.856700
vn 0.422000 0.445500 0.789600
vn 0.568000 0.445500 0.692100
vn 0.692100 0.445500 0.568000
vn 0.789600 0.445500 0.422000
vn 0.856700 0.445500 0.259900
vn 0.891000 0.445500 0.087800
vn 0.891000 0.445500 -0.087800
vn 0.856700 0.445500 -0.259900
vn 0.789600 0.445500 -0.422000
vn 0.692100 0.445500 -0.568000
vn 0.568000 0.445500 -0.692100
vn 0.422000 0.445500 -0.789600
vn -0.087800 0.445500 -0.891000
vn 0.259900 0.445500 -0.856700
vn 0.000000 -1.000000 0.000000
usemtl None
s off
f 68//42 46//42 69//42
f 37//43 46//43 38//43
f 67//44 46//44 68//44
f 66//45 46//45 67//45
f 65//46 46//46 66//46
f 64//47 46//47 65//47
f 63//48 46//48 64//48
f 62//49 46//49 63//49
f 61//50 46//50 62//50
f 60//51 46//51 61//51
f 59//52 46//52 60//52
f 58//53 46//53 59//53
f 57//54 46//54 58//54
f 56//55 46//55 57//55
f 55//56 46//56 56//56
f 54//57 46//57 55//57
f 53//58 46//58 54//58
f 52//59 46//59 53//59
f 51//60 46//60 52//60
f 50//61 46//61 51//61
f 49//62 46//62 50//62
f 48//63 46//63 49//63
f 47//64 46//64 48//64
f 45//65 46//65 47//65
f 44//66 46//66 45//66
f 43//67 46//67 44//67
f 42//68 46//68 43//68
f 41//69 46//69 42//69
f 40//70 46//70 41//70
f 39//71 46//71 40//71
f 69//72 46//72 37//72
f 38//73 46//73 39//73
f 37//74 38//74 39//74 40//74 41//74 42//74 43//74 44//74 45//74 47//74 48//74 49//74 50//74 51//74 52//74 53//74 54//74 55//74 56//74 57//74 58//74 59//74 60//74 61//74 62//74 63//74 64//74 65//74 66//74 67//74 68//74 69//74
o BezierCurve
v 7.577148 3.610783 3.296541
v 7.702438 3.610783 3.191506
v 7.829463 3.610783 3.122930
v 7.959961 3.610783 3.085604
v 8.095667 3.610783 3.074319
v 8.238317 3.610783 3.083868
v 8.389648 3.610783 3.109041
v 8.551396 3.610783 3.144632
v 8.725297 3.610783 3.185430
v 8.913086 3.610783 3.226229
v 9.116500 3.610783 3.261819
v 9.337276 3.610783 3.286993
v 9.577148 3.610783 3.296541
l 70 71
l 71 72
l 72 73
l 73 74
l 74 75
l 75 76
l 76 77
l 77 78
l 78 79
l 79 80
l 80 81
l 81 82
